<?xml version="1.0" encoding="utf-8"?>
<!-- Generator: Adobe Illustrator 15.1.0, SVG Export Plug-In . SVG Version: 6.00 Build 0)  -->
<!DOCTYPE svg PUBLIC "-//W3C//DTD SVG 1.1//EN" "http://www.w3.org/Graphics/SVG/1.1/DTD/svg11.dtd">
<svg version="1.1" id="Layer_1" xmlns="http://www.w3.org/2000/svg" xmlns:xlink="http://www.w3.org/1999/xlink" x="0px" y="0px"
	 width="1491.529px" height="493.333px" viewBox="0 0 1491.529 493.333" enable-background="new 0 0 1491.529 493.333"
	 xml:space="preserve">
<line fill="none" stroke="#CCCCCC" stroke-width="0.5" stroke-linecap="round" stroke-linejoin="round" stroke-miterlimit="10" x1="179.7" y1="257.167" x2="1374.265" y2="257.167"/>
<path fill="#559CAD" d="M150.315,211.149c0,0,42.203,27.549,63.159-23.923c18.419-45.247-43.99-54.548-19.124-112.922
	c7.641-7.655,28.698-15.311,51.662-4.783c22.964,10.526,51.671,36.367,80.376,17.226c0,0,5.221,22.686-5.736,37.321
	c-8.604,11.493-10.521,15.323-30.617,28.719c-20.098,13.396-22.969,15.311-23.927,27.75c0,0,3.273-10.44,26.406-21.382
	c23.136-10.942,42.518-33.138,43.768-49.083c1.251-15.945-0.625-24.386,0-27.513c0.627-3.125,14.381-10.941,5.003-16.881
	c-9.383-5.94-13.756,11.255-13.756,11.255s-3.749,3.906-12.193,8.753c-13.129,2.813-23.447,1.252-40.018-8.129
	c-16.569-9.379-40.329-29.7-73.781-25.01c-33.452,4.689-109.421,54.71-78.47,141.622c30.951,86.914,148.185,68.781,150.062,171.636
	c0.985,53.836-21.569,69.09-28.138,75.969c-6.564,6.879-33.452,20.32-35.326,20.635h-50.958c0,0-62.215-16.881-62.215-95.043
	c3.128-23.447,15.946-40.642,15.632-60.334c-0.312-19.697-30.013-49.396-63.778-29.078c14.382-2.812,45.646-4.062,48.458,12.506
	c2.813,16.57-5.002,27.197-10.317,33.449S57.1,360.491,54.599,382.374s-4.065,56.588,37.516,80.035c0,0-14.382,1.875-9.692,15.004
	c4.69,13.127,29.39,11.258,36.267,0h145.685c7.505,0,16.568,12.193,32.203,3.129c15.631-9.064,2.501-20.01-3.751-20.01
	c0,0,2.188-2.188,5.942-4.377c3.75-2.189,40.639-25.947,39.705-87.227c-0.938-61.271-47.096-74.149-67.542-83.795
	c-9.064-2.498-36.877-12.807-53.448-17.809c-16.569-5.003-56.274-28.763-69.715-49.709
	C147.769,217.615,146.724,209.589,150.315,211.149z"/>
<path fill="#559CAD" d="M250.834,75.919c0,0-7.191-5.626-9.066,2.502c-1.875,8.129,1.877,8.129-5.941,14.381
	c-7.813,6.253-10.627,9.066-9.379,9.066c1.252,0,14.694-7.816,18.445-10.942C248.645,87.8,254.586,83.735,250.834,75.919z"/>
<g>
	<g display="none">
		<path display="inline" fill="#7995A4" d="M769.848,242.743c-0.032,0-0.07,0.01-0.106,0.01c0.025-0.352,0.106-0.697,0.106-1.056
			c0-0.372-0.081-0.706-0.106-1.066c0.036,0,0.074,0.006,0.106,0.006c9.087,0,16.438-7.359,16.438-16.437
			c0-9.076-7.361-16.437-16.438-16.437c-9.085,0-16.438,7.368-16.438,16.437c0,0.039,0.009,0.072,0.009,0.106
			c-0.36-0.024-0.699-0.106-1.066-0.106h-70.652c-0.362,0-0.704,0.082-1.065,0.106c0-0.034,0.013-0.067,0.013-0.106
			c0-9.076-7.354-16.437-16.438-16.437s-16.444,7.368-16.444,16.437c0,9.08,7.364,16.437,16.444,16.437
			c0.036,0,0.068-0.006,0.104-0.006c-0.021,0.361-0.104,0.695-0.104,1.066c0,0.353,0.081,0.706,0.104,1.056
			c-0.033,0-0.069-0.01-0.104-0.01c-9.082,0-16.444,7.363-16.444,16.44c0,9.073,7.364,16.438,16.444,16.438
			c9.081,0,16.438-7.365,16.438-16.438c0-0.043-0.013-0.072-0.013-0.104c0.361,0.022,0.703,0.104,1.065,0.104h70.652
			c0.367,0,0.706-0.082,1.066-0.104c0,0.032-0.009,0.062-0.009,0.104c0,9.073,7.354,16.438,16.438,16.438
			c9.077,0,16.438-7.365,16.438-16.438C786.286,250.106,778.925,242.743,769.848,242.743z"/>
		
			<line display="inline" fill="none" stroke="#B0A691" stroke-linecap="round" stroke-linejoin="round" stroke-miterlimit="10" x1="500.474" y1="234.691" x2="632.708" y2="234.691"/>
		
			<line display="inline" fill="none" stroke="#B0A691" stroke-linecap="round" stroke-linejoin="round" stroke-miterlimit="10" x1="500.474" y1="252.182" x2="632.708" y2="252.182"/>
		
			<line display="inline" fill="none" stroke="#B0A691" stroke-linecap="round" stroke-linejoin="round" stroke-miterlimit="10" x1="799.938" y1="234.691" x2="932.175" y2="234.691"/>
		
			<line display="inline" fill="none" stroke="#B0A691" stroke-linecap="round" stroke-linejoin="round" stroke-miterlimit="10" x1="799.938" y1="252.182" x2="932.175" y2="252.182"/>
	</g>
	<g>
		<path d="M411.729,214.266h6.651c0.278,6.204,0.552,10.11,0.825,11.715c2.493,3.055,5.237,5.312,8.229,6.773
			c2.991,1.467,6.424,2.203,10.306,2.203c5.21,0,9.195-1.248,11.965-3.745c2.77-2.496,4.152-5.513,4.152-9.071
			c0-2.33-0.454-4.251-1.368-5.782c-0.919-1.526-2.76-2.928-5.522-4.202c-2.165-0.778-6.306-1.828-12.428-3.156
			c-6.126-1.331-10.763-2.806-13.92-4.406c-3.161-1.602-5.624-3.992-7.398-7.185c-1.763-3.191-2.648-6.905-2.648-11.165
			c0-7.642,2.873-13.992,8.638-19.059c5.765-5.063,14.047-7.598,24.845-7.598c4.492,0,8.614,0.383,12.38,1.162
			c3.771,0.783,7.176,1.951,10.229,3.494l0.248,0.83c-0.333,1.938-0.581,3.905-0.749,5.891c-0.167,1.997-0.415,6.704-0.752,14.13
			l-6.482-0.083c-0.057-0.609-0.139-1.646-0.25-3.103c-0.166-2.499-0.495-4.92-0.993-7.254c-1.714-2.24-3.824-3.896-6.343-4.999
			c-2.518-1.119-5.452-1.686-8.823-1.686c-4.693,0-8.331,1.058-10.896,3.165c-2.57,2.118-3.854,4.635-3.854,7.563
			c0,2.994,0.582,5.212,1.742,6.664c1.172,1.445,2.886,2.524,5.156,3.241c2.266,0.733,6.465,1.655,12.593,2.793
			c6.12,1.135,10.229,2.102,12.34,2.869c3.051,1.168,5.483,2.631,7.313,4.412c1.825,1.775,3.221,3.986,4.199,6.615
			c0.962,2.63,1.448,5.521,1.448,8.688c0,8.268-3.206,15.228-9.602,20.887c-6.394,5.65-15.381,8.48-26.96,8.48
			c-3.879,0-7.65-0.346-11.303-1.04c-3.656-0.69-8.118-1.943-13.388-3.784l-0.916-1.25c0.445-4.267,0.725-7.283,0.837-9.057
			L411.729,214.266z"/>
		<path d="M484.102,240.443v-6.155c6.206-0.441,9.757-0.933,10.644-1.452c0.888-0.525,1.442-1.514,1.664-2.959
			c0.552-3.043,0.83-10.898,0.83-23.539c0-17.372-0.249-27.243-0.749-29.63c-0.221-1.101-0.579-1.826-1.074-2.157
			c-1.11-0.725-4.876-1.106-11.301-1.162v-6.321c8.361-0.879,14.676-1.801,18.938-2.793c4.272-0.99,8.923-2.492,13.966-4.517
			l1.997,1.079c-0.668,8.641-1.002,16.754-1.002,24.352v28.243c0,9.642,0.226,15.341,0.669,17.123
			c0.225,0.992,0.664,1.66,1.333,1.992c1.489,0.716,5.125,1.199,10.883,1.408v6.489c-7.864-0.229-16.424-0.338-25.681-0.338
			C497.237,240.105,490.201,240.214,484.102,240.443z M506.914,120.121c3.538,0,6.523,1.242,8.991,3.739
			c2.455,2.487,3.685,5.485,3.685,8.967c0,3.549-1.229,6.573-3.685,9.064c-2.468,2.492-5.457,3.746-8.991,3.746
			c-3.48,0-6.454-1.254-8.941-3.746c-2.484-2.484-3.729-5.515-3.729-9.064c0-3.482,1.229-6.48,3.688-8.967
			C500.386,121.363,503.381,120.121,506.914,120.121z"/>
		<path d="M538.872,177.122v-3.733l7.473-4.679c1.211-0.77,2.378-1.597,3.488-2.468v-11.129c0-3.981-0.224-8.912-0.665-14.789
			c5.372-1.781,8.867-2.972,10.474-3.57c0.273-0.112,3.791-1.753,10.55-4.901l2.165,1.651l-0.831,8.641l-0.583,9.563l-0.751,14.534
			h2.749c7.358,0,12.931-0.271,16.696-0.826l-1.416,11.224c-0.657,0.099-1.265,0.165-1.828,0.165l-8.137-0.165h-8.055v27.748
			c0,8.534,0.082,13.575,0.238,15.124c0.221,2.613,1.153,4.648,2.787,6.114c1.634,1.454,4.006,2.202,7.104,2.202
			c1.886,0.056,3.39,0.009,4.53-0.126c1.137-0.138,2.591-0.399,4.366-0.787l1.333,3.366l-3,2.999
			c-2.443,2.505-4.584,4.69-6.416,6.59c-2.163,0.938-4.092,1.563-5.782,1.877c-1.693,0.294-3.428,0.448-5.202,0.448
			c-6.448,0-11.514-1.639-15.201-4.953c-3.687-3.299-5.543-7.415-5.543-12.357l0.428-27.456v-20.551h-2.252
			C544.544,176.872,541.636,176.956,538.872,177.122z"/>
	</g>
	<path fill="#B8B7B5" d="M625.111,187.981c3.601,0,6.653,1.264,9.181,3.784c2.525,2.523,3.781,5.58,3.781,9.182
		c0,3.602-1.272,6.685-3.82,9.232c-2.542,2.543-5.592,3.821-9.142,3.821c-3.595,0-6.677-1.278-9.224-3.821
		c-2.553-2.548-3.82-5.63-3.82-9.232c0-3.602,1.263-6.658,3.785-9.182C618.369,189.241,621.462,187.981,625.111,187.981z"/>
	<path fill="#B8B7B5" d="M997.111,187.981c3.601,0,6.653,1.264,9.181,3.784c2.525,2.523,3.781,5.58,3.781,9.182
		c0,3.602-1.272,6.685-3.82,9.232c-2.542,2.543-5.592,3.821-9.142,3.821c-3.595,0-6.677-1.278-9.224-3.821
		c-2.553-2.548-3.82-5.63-3.82-9.232c0-3.602,1.263-6.658,3.785-9.182C990.369,189.241,993.462,187.981,997.111,187.981z"/>
	<g>
		<path d="M667.571,214.266h6.646c0.28,6.204,0.562,10.11,0.833,11.715c2.497,3.055,5.241,5.312,8.229,6.773
			c2.98,1.467,6.422,2.203,10.301,2.203c5.205,0,9.2-1.248,11.968-3.745c2.763-2.496,4.15-5.513,4.15-9.071
			c0-2.33-0.457-4.251-1.372-5.782c-0.918-1.526-2.754-2.928-5.521-4.202c-2.169-0.778-6.305-1.828-12.429-3.156
			c-6.115-1.331-10.762-2.806-13.922-4.406c-3.152-1.602-5.622-3.992-7.396-7.185c-1.759-3.186-2.65-6.905-2.65-11.165
			c0-7.642,2.88-13.992,8.644-19.059c5.771-5.063,14.047-7.598,24.847-7.598c4.484,0,8.609,0.383,12.378,1.162
			c3.768,0.783,7.18,1.951,10.222,3.494l0.253,0.83c-0.334,1.938-0.582,3.905-0.751,5.891c-0.168,1.997-0.416,6.704-0.744,14.13
			l-6.494-0.083c-0.057-0.609-0.127-1.646-0.239-3.103c-0.172-2.499-0.505-4.92-0.994-7.254c-1.717-2.24-3.828-3.896-6.341-4.999
			c-2.522-1.119-5.454-1.686-8.822-1.686c-4.695,0-8.331,1.058-10.901,3.165c-2.562,2.118-3.85,4.635-3.85,7.563
			c0,2.994,0.57,5.212,1.735,6.664c1.17,1.445,2.884,2.524,5.154,3.241c2.277,0.733,6.465,1.655,12.593,2.793
			c6.118,1.135,10.235,2.102,12.339,2.869c3.054,1.168,5.484,2.631,7.312,4.412c1.833,1.775,3.229,3.986,4.199,6.615
			c0.967,2.63,1.453,5.521,1.453,8.688c0,8.268-3.198,15.228-9.592,20.887c-6.4,5.65-15.391,8.48-26.969,8.48
			c-3.873,0-7.645-0.346-11.303-1.04c-3.652-0.69-8.113-1.943-13.377-3.784l-0.916-1.25c0.443-4.267,0.719-7.283,0.831-9.057
			L667.571,214.266z"/>
		<path d="M738.042,177.122v-3.733l7.472-4.679c1.222-0.77,2.39-1.597,3.491-2.468v-11.129c0-3.981-0.218-8.912-0.668-14.789
			c5.373-1.781,8.87-2.972,10.479-3.57c0.271-0.112,3.789-1.753,10.544-4.901l2.156,1.651l-0.824,8.641l-0.583,9.563l-0.749,14.534
			h2.744c7.367,0,12.938-0.271,16.705-0.826l-1.42,11.224c-0.652,0.099-1.268,0.165-1.825,0.165l-8.146-0.165h-8.053v27.748
			c0,8.534,0.081,13.575,0.252,15.124c0.222,2.613,1.144,4.648,2.774,6.114c1.638,1.454,4.007,2.202,7.106,2.202
			c1.88,0.056,3.394,0.009,4.532-0.126c1.137-0.138,2.591-0.399,4.365-0.787l1.324,3.366l-2.999,2.999
			c-2.433,2.505-4.578,4.69-6.404,6.59c-2.169,0.938-4.099,1.563-5.791,1.877c-1.693,0.294-3.429,0.448-5.201,0.448
			c-6.442,0-11.509-1.639-15.196-4.953c-3.691-3.299-5.539-7.415-5.539-12.357l0.419-27.456v-20.551h-2.248
			C743.719,176.872,740.804,176.956,738.042,177.122z"/>
		<path d="M872.074,234.208v6.235c-6.374-0.283-12.024-0.421-16.962-0.421c-4.649,0-9.155,0.132-13.535,0.421l-0.75-0.915
			l0.75-10.896c-1.997,1.277-7.866,5.655-17.617,13.135c-2.493,0.555-4.881,0.831-7.146,0.831c-6.042,0-10.764-1.779-14.17-5.326
			c-3.399-3.528-5.106-8.641-5.106-15.287c0-4.491,0.76-8.172,2.284-11.052c1.524-2.885,3.159-5.008,4.901-6.358
			c1.748-1.36,4.444-2.673,8.102-3.954c8.749-3.1,18.336-5.528,28.754-7.303c0.104-6.597-1.248-11.614-4.07-15.049
			c-2.879-3.437-7.255-5.147-13.123-5.147c-2.383,0-4.665,0.297-6.82,0.915c-0.94,0.273-2.046,0.828-3.313,1.658l-3.495,8.389
			l-5.646-1.249l0.498-10.722c4.097-2.772,8.005-5.171,11.716-7.227c3.714-2.05,6.313-3.296,7.807-3.74
			c2.055-0.606,4.935-0.917,8.649-0.917c6.031,0,11.008,0.881,14.908,2.626c3.912,1.742,6.789,3.807,8.646,6.194
			c1.854,2.382,3.128,4.931,3.82,7.645c0.697,2.714,1.04,6.148,1.04,10.303c0,1.774-0.141,6.394-0.425,13.867
			c-0.17,4.996-0.242,9.069-0.242,12.217c0,9.866,0.275,15.854,0.822,17.948c0.225,0.999,0.678,1.662,1.336,1.998
			C864.565,233.489,867.364,233.875,872.074,234.208z M841.577,200.304c-4.71,0.996-9.021,2.203-12.92,3.622
			c-3.905,1.415-6.604,3.149-8.106,5.229c-1.496,2.081-2.241,4.691-2.241,7.854c0,3.544,0.896,6.292,2.7,8.225
			c1.8,1.939,4.167,2.908,7.108,2.908c2.487,0,4.998-0.72,7.518-2.162c2.517-1.443,4.506-3.262,5.941-5.48V200.304L841.577,200.304z
			"/>
		<path d="M881.376,282.827c0.943-4.052,1.557-6.871,1.83-8.481l1.248-8.394l2.164-0.423c1.383,1.438,2.955,2.716,4.731,3.818
			c2.161,0.938,4.488,1.413,6.979,1.413c2.879,0,5.54-0.983,7.979-2.952c2.443-1.974,5.152-6.281,8.146-12.942l3.325-7.987
			l-26.936-69.1c-1.604-4.102-3.132-6.646-4.565-7.599c-1.442-0.976-4.182-1.438-8.227-1.382v-6.483
			c5.422,0.232,12.076,0.329,19.942,0.329c9.309,0,17.582-0.097,24.85-0.329v6.483h-1.917c-3.44-0.055-5.818,0.334-7.146,1.168
			c-0.835,0.554-1.251,1.27-1.251,2.157c0,0.999,0.261,2.218,0.83,3.66l4.073,11.224l12.139,31.616l7.35-17.22
			c7.119-17.076,10.672-26.943,10.672-29.605c0-0.557-0.142-0.999-0.422-1.335c-0.39-0.438-1.078-0.771-2.075-0.996
			c-1.986-0.388-4.654-0.601-7.978-0.663v-6.482c3.551,0.225,7.999,0.323,13.38,0.323c6.531,0,12.628-0.099,18.278-0.323v6.482
			h-1.327c-1.499-0.06-2.91,0.221-4.243,0.827c-0.825,0.334-1.567,0.895-2.195,1.67c-0.637,0.771-2.202,3.815-4.697,9.145
			c-3.271,6.986-5.896,12.75-7.885,17.294c-6.203,14.08-10.138,23.121-11.806,27.11l-13.374,32.673
			c-4.1,9.922-8.443,16.996-13.047,21.213c-4.6,4.269-10.196,6.397-16.772,6.397c-2.168,0-4.147-0.172-5.953-0.506
			C885.69,284.311,883.651,283.704,881.376,282.827z"/>
	</g>
	<g>
		<path d="M1060.177,239.861v30.812c0,2.55,0.249,4.152,0.749,4.787c0.497,0.642,1.415,1.103,2.746,1.377
			c0.557,0.113,4.291,0.44,11.221,1v6.49l-26.392-0.595l-21.803,0.595v-6.49c5.051,0,8.149-0.226,9.309-0.668
			c0.669-0.219,1.21-0.621,1.621-1.205c0.416-0.582,0.676-1.276,0.775-2.121c0.276-2.217,0.538-6.989,0.762-14.311l0.252-17.883
			v-38.506c0-6.982-0.111-13.099-0.333-18.333c-0.225-5.242-0.609-8.339-1.16-9.269c-0.392-0.611-0.97-1.069-1.751-1.372
			c-0.771-0.315-3.938-0.492-9.475-0.544v-6.492c8.276-0.887,14.52-1.825,18.74-2.816c4.218-0.995,8.565-2.494,13.078-4.488
			l1.929,1.248l-0.265,13.965c0.831-0.669,2.216-1.799,4.152-3.412l8.297-6.812c0.558-0.495,1.391-1.271,2.489-2.325
			c2.16-0.887,3.974-1.478,5.433-1.781c1.467-0.3,3.504-0.454,6.098-0.454c5.858,0,10.598,0.831,14.192,2.486
			c5.145,2.388,9.378,6.084,12.699,11.104c3.31,4.996,4.978,11.117,4.978,18.321c0,4.542-0.605,9.058-1.826,13.539
			c-1.223,4.479-2.591,8.058-4.104,10.72c-1.521,2.66-3.132,4.878-4.85,6.651c-1.279,1.338-3.413,3.109-6.436,5.32
			c-3.012,2.218-5.794,4.379-8.339,6.487c-2.545,2.106-4.37,3.517-5.476,4.241c-1.778,1.099-3.47,1.88-5.064,2.322
			c-2.22,0.661-4.79,0.994-7.716,0.994c-2.32,0-4.698-0.227-7.133-0.66C1065.125,241.322,1062.665,240.694,1060.177,239.861z
			 M1060.177,223.905c2.54,2.614,5.192,4.557,7.952,5.856c2.771,1.299,5.646,1.953,8.631,1.953c3.975,0,7.507-0.994,10.572-2.991
			c3.067-1.994,5.476-5.341,7.204-10.053c1.744-4.712,2.615-10.147,2.615-16.29c0-3.944-0.432-7.663-1.328-11.167
			c-0.877-3.529-2.091-6.375-3.641-8.57c-1.546-2.189-3.659-4.021-6.336-5.493c-2.688-1.459-5.605-2.195-8.752-2.195
			c-3.044,0-6.122,0.766-9.246,2.33c-3.12,1.551-5.676,3.511-7.668,5.896L1060.177,223.905L1060.177,223.905z"/>
		<path d="M1178.089,233.954v6.489c-6.914-0.395-14.153-0.582-21.686-0.582c-7.533,0-16.011,0.187-25.418,0.582v-6.489
			c5.299-0.167,8.501-0.384,9.607-0.654c0.834-0.23,1.463-0.546,1.884-0.957c0.429-0.426,0.709-1.07,0.889-1.957
			c0.386-1.658,0.643-6.9,0.779-15.713c0.137-8.819,0.209-16.633,0.209-23.461v-27.456c0-8.694-0.196-16.66-0.578-23.857
			c-0.229-3.88-0.51-6.187-0.832-6.888c-0.219-0.396-0.526-0.701-0.916-0.921c-0.66-0.443-1.715-0.766-3.16-0.993
			c-0.831-0.111-3.318-0.256-7.473-0.426v-6.147c6.881-0.727,12.381-1.508,16.485-2.372c4.105-0.86,9.642-2.375,16.576-4.525
			l1.748,0.994l-0.711,16.809c-0.298,9.431-0.469,20.998-0.53,34.7v21.302c0,8.049,0.039,14.066,0.136,18.066
			c0.19,9.921,0.33,15.938,0.436,18.007c0.11,2.089,0.309,3.402,0.604,3.958c0.166,0.394,0.429,0.726,0.83,0.999
			c0.502,0.394,1.369,0.694,2.595,0.914C1170.064,233.489,1172.907,233.682,1178.089,233.954z"/>
		<path d="M1264.262,234.208v6.235c-6.369-0.283-12.021-0.421-16.949-0.421c-4.662,0-9.18,0.132-13.547,0.421l-0.755-0.915
			l0.755-10.896c-1.998,1.277-7.878,5.655-17.615,13.135c-2.497,0.555-4.883,0.831-7.146,0.831c-6.044,0-10.773-1.779-14.17-5.326
			c-3.409-3.528-5.109-8.641-5.109-15.287c0-4.491,0.762-8.172,2.287-11.052c1.521-2.885,3.15-5.008,4.896-6.358
			c1.755-1.36,4.456-2.673,8.104-3.954c8.752-3.1,18.337-5.528,28.755-7.303c0.1-6.597-1.256-11.614-4.069-15.049
			c-2.885-3.437-7.26-5.147-13.142-5.147c-2.382,0-4.65,0.297-6.812,0.915c-0.938,0.273-2.053,0.828-3.324,1.658l-3.482,8.389
			l-5.65-1.249l0.489-10.722c4.106-2.772,8.018-5.171,11.73-7.227c3.702-2.05,6.312-3.296,7.8-3.74
			c2.052-0.606,4.938-0.917,8.652-0.917c6.025,0,10.998,0.881,14.914,2.626c3.904,1.742,6.787,3.807,8.642,6.194
			c1.847,2.382,3.13,4.931,3.817,7.645c0.691,2.714,1.04,6.148,1.04,10.303c0,1.774-0.14,6.394-0.416,13.867
			c-0.167,4.996-0.257,9.069-0.257,12.217c0,9.866,0.272,15.854,0.828,17.948c0.225,0.999,0.662,1.662,1.328,1.998
			C1256.756,233.489,1259.547,233.875,1264.262,234.208z M1233.766,200.304c-4.713,0.996-9.019,2.203-12.921,3.622
			c-3.919,1.415-6.605,3.149-8.104,5.229c-1.496,2.081-2.253,4.691-2.253,7.854c0,3.544,0.906,6.292,2.701,8.225
			c1.802,1.939,4.166,2.908,7.108,2.908c2.483,0,5.004-0.72,7.52-2.162c2.523-1.443,4.5-3.262,5.948-5.48V200.304L1233.766,200.304z
			"/>
		<path d="M1273.564,282.827c0.942-4.052,1.556-6.871,1.827-8.481l1.26-8.394l2.155-0.423c1.391,1.438,2.963,2.716,4.733,3.818
			c2.159,0.938,4.49,1.413,6.979,1.413c2.881,0,5.541-0.983,7.975-2.952c2.449-1.974,5.167-6.281,8.162-12.942l3.31-7.987
			l-26.929-69.1c-1.604-4.102-3.127-6.646-4.564-7.599c-1.439-0.976-4.178-1.438-8.224-1.382v-6.483
			c5.433,0.232,12.069,0.329,19.943,0.329c9.296,0,17.573-0.097,24.839-0.329v6.483h-1.91c-3.447-0.055-5.826,0.334-7.146,1.168
			c-0.834,0.554-1.258,1.27-1.258,2.157c0,0.999,0.273,2.218,0.83,3.66l4.076,11.224l12.134,31.616l7.354-17.22
			c7.115-17.076,10.677-26.943,10.677-29.605c0-0.557-0.146-0.999-0.417-1.335c-0.4-0.438-1.091-0.771-2.088-0.996
			c-1.988-0.388-4.655-0.601-7.977-0.663v-6.482c3.551,0.225,8.012,0.323,13.381,0.323c6.53,0,12.633-0.099,18.277-0.323v6.482
			h-1.33c-1.498-0.06-2.906,0.221-4.24,0.827c-0.825,0.334-1.566,0.895-2.193,1.67c-0.64,0.771-2.205,3.815-4.694,9.145
			c-3.272,6.986-5.896,12.75-7.89,17.294c-6.204,14.08-10.138,23.121-11.801,27.11l-13.379,32.673
			c-4.103,9.922-8.444,16.996-13.042,21.213c-4.604,4.269-10.19,6.397-16.779,6.397c-2.167,0-4.146-0.172-5.948-0.506
			C1277.88,284.311,1275.835,283.704,1273.564,282.827z"/>
	</g>
</g>
</svg>
