<?xml version="1.0" encoding="utf-8"?>
<!-- Generator: Adobe Illustrator 15.1.0, SVG Export Plug-In . SVG Version: 6.00 Build 0)  -->
<!DOCTYPE svg PUBLIC "-//W3C//DTD SVG 1.1//EN" "http://www.w3.org/Graphics/SVG/1.1/DTD/svg11.dtd">
<svg version="1.1" id="Layer_1" xmlns="http://www.w3.org/2000/svg" xmlns:xlink="http://www.w3.org/1999/xlink" x="0px" y="0px"
	 width="1491.529px" height="493.333px" viewBox="0 17.165 1491.529 493.333" enable-background="new 0 17.165 1491.529 493.333"
	 xml:space="preserve">
<path fill="#562C23" d="M150.315,211.149c0,0,42.203,27.549,63.159-23.923c18.419-45.247-43.99-54.548-19.124-112.922
	c7.641-7.655,28.698-15.311,51.662-4.783c22.964,10.526,51.671,36.367,80.378,17.226c0,0,5.219,22.686-5.738,37.321
	c-8.604,11.493-10.521,15.323-30.617,28.719c-20.098,13.396-22.969,15.311-23.927,27.75c0,0,3.273-10.44,26.406-21.382
	c23.136-10.942,42.518-33.138,43.768-49.083c1.251-15.945-0.625-24.386,0-27.513c0.627-3.125,14.381-10.941,5.003-16.881
	c-9.383-5.94-13.756,11.255-13.756,11.255s-3.749,3.906-12.193,8.753c-13.129,2.813-23.447,1.252-40.018-8.129
	c-16.569-9.379-40.329-29.7-73.781-25.01c-33.452,4.689-109.421,54.71-78.47,141.622c30.951,86.913,148.185,68.78,150.062,171.636
	c0.985,53.836-21.569,69.09-28.138,75.968c-6.564,6.879-33.452,20.322-35.326,20.635h-50.958c0,0-62.215-16.881-62.215-95.042
	c3.128-23.447,15.946-40.642,15.632-60.334c-0.312-19.697-30.013-49.397-63.778-29.078c14.382-2.812,45.646-4.062,48.458,12.506
	c2.813,16.569-5.002,27.196-10.317,33.449c-5.315,6.252-29.387,36.582-31.888,58.465c-2.501,21.882-4.065,56.587,37.516,80.034
	c0,0-14.382,1.876-9.692,15.005c4.69,13.127,29.39,11.258,36.267,0h145.685c7.505,0,16.568,12.192,32.203,3.128
	c15.631-9.064,2.501-20.01-3.751-20.01c0,0,2.188-2.186,5.942-4.376c3.75-2.189,40.639-25.948,39.705-87.227
	c-0.939-61.271-63.154-87.847-72.22-90.349c-9.064-2.499-32.2-6.253-48.771-11.255c-16.569-5.002-56.274-28.761-69.715-49.709
	C147.769,217.615,146.724,209.589,150.315,211.149z"/>
<path fill="#562C23" d="M250.834,75.919c0,0-7.191-5.626-9.066,2.502c-1.875,8.129,1.877,8.129-5.941,14.381
	c-7.813,6.253-10.627,9.066-9.379,9.066c1.252,0,14.694-7.816,18.445-10.942C248.645,87.8,254.586,83.735,250.834,75.919z"/>
<g>
	<g display="none">
		<path display="inline" fill="#7995A4" d="M769.848,242.743c-0.034,0-0.072,0.01-0.108,0.01c0.027-0.352,0.108-0.697,0.108-1.056
			c0-0.372-0.081-0.706-0.108-1.066c0.036,0,0.074,0.006,0.108,0.006c9.087,0,16.438-7.359,16.438-16.437
			c0-9.076-7.361-16.437-16.438-16.437c-9.085,0-16.44,7.368-16.44,16.437c0,0.039,0.009,0.072,0.009,0.106
			c-0.36-0.024-0.699-0.106-1.066-0.106h-70.654c-0.362,0-0.704,0.082-1.065,0.106c0-0.034,0.012-0.067,0.012-0.106
			c0-9.076-7.355-16.437-16.437-16.437c-9.082,0-16.444,7.368-16.444,16.437c0,9.08,7.364,16.437,16.444,16.437
			c0.036,0,0.068-0.006,0.103-0.006c-0.021,0.361-0.103,0.695-0.103,1.066c0,0.353,0.081,0.706,0.103,1.056
			c-0.034,0-0.07-0.01-0.103-0.01c-9.082,0-16.444,7.363-16.444,16.44c0,9.074,7.364,16.438,16.444,16.438
			c9.081,0,16.437-7.365,16.437-16.438c0-0.043-0.012-0.072-0.012-0.105c0.361,0.023,0.703,0.105,1.065,0.105h70.654
			c0.367,0,0.706-0.082,1.066-0.105c0,0.033-0.009,0.062-0.009,0.105c0,9.074,7.355,16.438,16.44,16.438
			c9.077,0,16.438-7.365,16.438-16.438C786.286,250.106,778.925,242.743,769.848,242.743z"/>
		
			<line display="inline" fill="none" stroke="#B0A691" stroke-linecap="round" stroke-linejoin="round" stroke-miterlimit="10" x1="500.474" y1="234.691" x2="632.708" y2="234.691"/>
		
			<line display="inline" fill="none" stroke="#B0A691" stroke-linecap="round" stroke-linejoin="round" stroke-miterlimit="10" x1="500.474" y1="252.182" x2="632.708" y2="252.182"/>
		
			<line display="inline" fill="none" stroke="#B0A691" stroke-linecap="round" stroke-linejoin="round" stroke-miterlimit="10" x1="799.937" y1="234.691" x2="932.175" y2="234.691"/>
		
			<line display="inline" fill="none" stroke="#B0A691" stroke-linecap="round" stroke-linejoin="round" stroke-miterlimit="10" x1="799.937" y1="252.182" x2="932.175" y2="252.182"/>
	</g>
	<g>
		<path fill="#010101" d="M411.729,214.266h6.651c0.278,6.204,0.552,10.11,0.825,11.715c2.493,3.055,5.237,5.312,8.229,6.773
			c2.991,1.467,6.422,2.203,10.304,2.203c5.21,0,9.197-1.248,11.965-3.745c2.77-2.496,4.152-5.513,4.152-9.071
			c0-2.33-0.454-4.251-1.368-5.782c-0.919-1.526-2.758-2.928-5.522-4.202c-2.165-0.778-6.306-1.828-12.428-3.156
			c-6.126-1.331-10.763-2.806-13.92-4.406c-3.161-1.602-5.624-3.992-7.398-7.185c-1.763-3.191-2.65-6.905-2.65-11.165
			c0-7.642,2.873-13.992,8.638-19.059c5.765-5.063,14.047-7.598,24.845-7.598c4.492,0,8.614,0.383,12.38,1.162
			c3.771,0.783,7.174,1.951,10.229,3.494l0.248,0.83c-0.333,1.938-0.581,3.905-0.749,5.891c-0.167,1.997-0.415,6.704-0.752,14.13
			l-6.482-0.083c-0.057-0.609-0.139-1.646-0.25-3.103c-0.166-2.499-0.495-4.92-0.993-7.254c-1.714-2.24-3.826-3.896-6.343-4.999
			c-2.518-1.119-5.452-1.686-8.823-1.686c-4.695,0-8.331,1.058-10.898,3.165c-2.57,2.118-3.854,4.635-3.854,7.563
			c0,2.994,0.582,5.212,1.742,6.664c1.172,1.445,2.886,2.524,5.156,3.241c2.266,0.733,6.465,1.655,12.593,2.793
			c6.12,1.135,10.229,2.102,12.34,2.869c3.05,1.168,5.483,2.631,7.313,4.412c1.825,1.775,3.221,3.986,4.199,6.615
			c0.962,2.63,1.45,5.521,1.45,8.688c0,8.268-3.206,15.228-9.602,20.887c-6.393,5.65-15.381,8.48-26.96,8.48
			c-3.879,0-7.65-0.346-11.303-1.04c-3.656-0.69-8.118-1.943-13.386-3.784l-0.916-1.25c0.445-4.267,0.723-7.283,0.837-9.057
			L411.729,214.266z"/>
		<path fill="#010101" d="M484.102,240.443v-6.155c6.206-0.441,9.755-0.933,10.642-1.452c0.888-0.525,1.444-1.514,1.664-2.959
			c0.552-3.043,0.83-10.898,0.83-23.539c0-17.372-0.249-27.243-0.749-29.63c-0.219-1.101-0.579-1.826-1.074-2.157
			c-1.11-0.725-4.876-1.106-11.301-1.162v-6.321c8.363-0.879,14.676-1.801,18.938-2.793c4.272-0.99,8.923-2.492,13.966-4.517
			l1.997,1.079c-0.668,8.641-1.002,16.754-1.002,24.352v28.243c0,9.642,0.224,15.341,0.669,17.123
			c0.223,0.992,0.664,1.66,1.333,1.992c1.489,0.716,5.125,1.199,10.882,1.408v6.489c-7.865-0.229-16.423-0.338-25.68-0.338
			C497.237,240.105,490.201,240.214,484.102,240.443z M506.914,120.121c3.538,0,6.523,1.242,8.991,3.739
			c2.455,2.487,3.685,5.485,3.685,8.967c0,3.549-1.229,6.573-3.685,9.064c-2.468,2.492-5.457,3.746-8.991,3.746
			c-3.48,0-6.454-1.254-8.941-3.746c-2.486-2.484-3.73-5.515-3.73-9.064c0-3.482,1.231-6.48,3.689-8.967
			C500.386,121.363,503.381,120.121,506.914,120.121z"/>
		<path fill="#010101" d="M538.872,177.122v-3.733l7.473-4.679c1.211-0.77,2.378-1.597,3.488-2.468v-11.129
			c0-3.981-0.224-8.912-0.665-14.789c5.372-1.781,8.867-2.972,10.474-3.57c0.273-0.112,3.791-1.753,10.548-4.901l2.165,1.651
			l-0.831,8.641l-0.583,9.563l-0.751,14.534h2.749c7.36,0,12.931-0.271,16.698-0.826l-1.416,11.224
			c-0.658,0.099-1.265,0.165-1.829,0.165l-8.136-0.165h-8.055v27.748c0,8.534,0.082,13.575,0.238,15.124
			c0.221,2.613,1.155,4.648,2.788,6.114c1.633,1.454,4.005,2.202,7.103,2.202c1.886,0.056,3.39,0.009,4.53-0.126
			c1.137-0.138,2.591-0.399,4.366-0.787l1.333,3.366l-3,2.999c-2.443,2.505-4.584,4.69-6.416,6.59
			c-2.163,0.938-4.09,1.563-5.782,1.877c-1.693,0.294-3.428,0.448-5.202,0.448c-6.448,0-11.514-1.639-15.201-4.953
			c-3.687-3.299-5.543-7.415-5.543-12.357l0.428-27.456v-20.551h-2.252C544.544,176.872,541.636,176.956,538.872,177.122z"/>
	</g>
	<path fill="#C9AC68" d="M625.111,187.981c3.601,0,6.655,1.264,9.181,3.784c2.525,2.523,3.781,5.58,3.781,9.182
		s-1.272,6.685-3.82,9.232c-2.542,2.543-5.592,3.821-9.142,3.821c-3.593,0-6.675-1.278-9.222-3.821
		c-2.553-2.548-3.822-5.63-3.822-9.232s1.263-6.658,3.787-9.182C618.369,189.241,621.462,187.981,625.111,187.981z"/>
	<g>
		<path fill="#010101" d="M667.571,214.266h6.646c0.28,6.204,0.56,10.11,0.833,11.715c2.497,3.055,5.241,5.312,8.229,6.773
			c2.982,1.467,6.422,2.203,10.301,2.203c5.205,0,9.2-1.248,11.968-3.745c2.762-2.496,4.15-5.513,4.15-9.071
			c0-2.33-0.457-4.251-1.372-5.782c-0.918-1.526-2.754-2.928-5.521-4.202c-2.169-0.778-6.305-1.828-12.429-3.156
			c-6.115-1.331-10.762-2.806-13.922-4.406c-3.152-1.602-5.622-3.992-7.395-7.185c-1.759-3.186-2.652-6.905-2.652-11.165
			c0-7.642,2.88-13.992,8.644-19.059c5.77-5.063,14.047-7.598,24.845-7.598c4.486,0,8.611,0.383,12.378,1.162
			c3.768,0.783,7.18,1.951,10.222,3.494l0.253,0.83c-0.334,1.938-0.582,3.905-0.751,5.891c-0.168,1.997-0.416,6.704-0.744,14.13
			l-6.494-0.083c-0.057-0.609-0.127-1.646-0.239-3.103c-0.172-2.499-0.505-4.92-0.996-7.254c-1.715-2.24-3.828-3.896-6.339-4.999
			c-2.524-1.119-5.455-1.686-8.824-1.686c-4.695,0-8.331,1.058-10.901,3.165c-2.563,2.118-3.85,4.635-3.85,7.563
			c0,2.994,0.572,5.212,1.737,6.664c1.17,1.445,2.882,2.524,5.154,3.241c2.277,0.733,6.465,1.655,12.593,2.793
			c6.118,1.135,10.235,2.102,12.339,2.869c3.052,1.168,5.484,2.631,7.31,4.412c1.833,1.775,3.229,3.986,4.199,6.615
			c0.967,2.63,1.453,5.521,1.453,8.688c0,8.268-3.198,15.228-9.59,20.887c-6.402,5.65-15.391,8.48-26.969,8.48
			c-3.873,0-7.645-0.346-11.303-1.04c-3.652-0.69-8.113-1.943-13.377-3.784l-0.916-1.25c0.445-4.267,0.719-7.283,0.831-9.057
			L667.571,214.266z"/>
		<path fill="#010101" d="M738.042,177.122v-3.733l7.472-4.679c1.22-0.77,2.388-1.597,3.491-2.468v-11.129
			c0-3.981-0.218-8.912-0.668-14.789c5.373-1.781,8.87-2.972,10.479-3.57c0.273-0.112,3.79-1.753,10.544-4.901l2.158,1.651
			l-0.826,8.641l-0.583,9.563l-0.749,14.534h2.745c7.368,0,12.938-0.271,16.706-0.826l-1.42,11.224
			c-0.654,0.099-1.268,0.165-1.826,0.165l-8.145-0.165h-8.053v27.748c0,8.534,0.081,13.575,0.252,15.124
			c0.222,2.613,1.144,4.648,2.776,6.114c1.636,1.454,4.005,2.202,7.106,2.202c1.88,0.056,3.393,0.009,4.532-0.126
			c1.137-0.138,2.591-0.399,4.365-0.787l1.326,3.366l-2.999,2.999c-2.433,2.505-4.579,4.69-6.406,6.59
			c-2.168,0.938-4.097,1.563-5.791,1.877c-1.693,0.294-3.427,0.448-5.201,0.448c-6.442,0-11.509-1.639-15.196-4.953
			c-3.692-3.299-5.539-7.415-5.539-12.357l0.419-27.456v-20.551h-2.248C743.719,176.872,740.804,176.956,738.042,177.122z"/>
		<path fill="#010101" d="M872.074,234.208v6.235c-6.374-0.283-12.024-0.421-16.962-0.421c-4.649,0-9.155,0.132-13.535,0.421
			l-0.75-0.915l0.75-10.896c-1.997,1.277-7.866,5.655-17.617,13.135c-2.493,0.555-4.881,0.831-7.147,0.831
			c-6.042,0-10.762-1.779-14.169-5.326c-3.4-3.528-5.107-8.641-5.107-15.287c0-4.491,0.76-8.172,2.284-11.052
			c1.526-2.885,3.159-5.008,4.903-6.358c1.748-1.36,4.444-2.673,8.1-3.954c8.749-3.1,18.336-5.528,28.754-7.303
			c0.106-6.597-1.248-11.614-4.07-15.049c-2.879-3.437-7.255-5.147-13.123-5.147c-2.383,0-4.665,0.297-6.822,0.915
			c-0.94,0.273-2.045,0.828-3.313,1.658l-3.495,8.389l-5.646-1.249l0.498-10.722c4.097-2.772,8.005-5.171,11.716-7.227
			c3.714-2.05,6.315-3.296,7.807-3.74c2.054-0.606,4.933-0.917,8.649-0.917c6.031,0,11.008,0.881,14.908,2.626
			c3.913,1.742,6.789,3.807,8.648,6.194c1.854,2.382,3.128,4.931,3.82,7.645c0.697,2.714,1.04,6.148,1.04,10.303
			c0,1.774-0.139,6.394-0.425,13.867c-0.168,4.996-0.242,9.069-0.242,12.217c0,9.866,0.277,15.854,0.823,17.948
			c0.224,0.999,0.677,1.662,1.335,1.998C864.565,233.489,867.364,233.875,872.074,234.208z M841.577,200.304
			c-4.71,0.996-9.02,2.203-12.92,3.622c-3.905,1.415-6.602,3.149-8.106,5.229c-1.496,2.081-2.241,4.691-2.241,7.854
			c0,3.544,0.896,6.292,2.7,8.225c1.8,1.939,4.167,2.908,7.108,2.908c2.487,0,4.998-0.72,7.518-2.162
			c2.515-1.443,4.506-3.262,5.941-5.48V200.304L841.577,200.304z"/>
		<path fill="#010101" d="M881.376,282.826c0.943-4.051,1.557-6.871,1.83-8.482l1.248-8.393l2.164-0.422
			c1.383,1.438,2.955,2.715,4.733,3.818c2.161,0.938,4.488,1.414,6.977,1.414c2.879,0,5.54-0.984,7.979-2.953
			c2.443-1.973,5.152-6.281,8.146-12.943l3.325-7.986l-26.934-69.1c-1.604-4.102-3.132-6.646-4.567-7.599
			c-1.442-0.976-4.18-1.438-8.225-1.382v-6.483c5.422,0.232,12.076,0.329,19.942,0.329c9.309,0,17.582-0.097,24.85-0.329v6.483
			h-1.917c-3.442-0.055-5.82,0.334-7.148,1.168c-0.835,0.554-1.251,1.27-1.251,2.157c0,0.999,0.261,2.218,0.83,3.66l4.075,11.224
			l12.137,31.616l7.35-17.22c7.119-17.076,10.672-26.943,10.672-29.605c0-0.557-0.142-0.999-0.422-1.335
			c-0.39-0.438-1.078-0.771-2.075-0.996c-1.988-0.388-4.655-0.601-7.978-0.663v-6.482c3.551,0.225,7.999,0.323,13.38,0.323
			c6.531,0,12.628-0.099,18.278-0.323v6.482h-1.327c-1.499-0.06-2.91,0.221-4.243,0.827c-0.825,0.334-1.567,0.895-2.195,1.67
			c-0.637,0.771-2.202,3.815-4.697,9.145c-3.271,6.986-5.897,12.75-7.885,17.294c-6.203,14.08-10.138,23.121-11.806,27.11
			l-13.374,32.673c-4.1,9.922-8.443,16.996-13.047,21.213c-4.598,4.268-10.196,6.398-16.772,6.398c-2.168,0-4.149-0.172-5.953-0.506
			C885.69,284.311,883.651,283.703,881.376,282.826z"/>
	</g>
	<path fill="#C9AC68" d="M992.978,188.458c3.604,0,6.662,1.264,9.186,3.783c2.521,2.521,3.781,5.579,3.781,9.183
		c0,3.6-1.276,6.683-3.819,9.232c-2.553,2.545-5.594,3.819-9.143,3.819c-3.604,0-6.682-1.274-9.227-3.819
		c-2.55-2.549-3.816-5.632-3.816-9.232c0-3.604,1.261-6.661,3.781-9.183C986.236,189.718,989.325,188.458,992.978,188.458z"/>
	<g>
		<path fill="#010101" d="M1060.177,239.861v30.811c0,2.549,0.249,4.152,0.749,4.787c0.497,0.641,1.415,1.102,2.746,1.377
			c0.556,0.113,4.291,0.441,11.221,1v6.49l-26.392-0.594l-21.803,0.594v-6.49c5.051,0,8.151-0.225,9.309-0.668
			c0.669-0.219,1.21-0.621,1.621-1.205c0.416-0.582,0.676-1.277,0.775-2.121c0.278-2.217,0.538-6.99,0.762-14.311l0.252-17.882
			v-38.506c0-6.982-0.111-13.099-0.333-18.333c-0.224-5.242-0.609-8.339-1.16-9.269c-0.392-0.611-0.97-1.069-1.751-1.372
			c-0.77-0.315-3.938-0.492-9.475-0.544v-6.492c8.278-0.887,14.52-1.825,18.742-2.816c4.216-0.995,8.565-2.494,13.078-4.488
			l1.928,1.248l-0.264,13.965c0.831-0.669,2.216-1.799,4.152-3.412l8.297-6.812c0.558-0.495,1.391-1.271,2.489-2.325
			c2.161-0.887,3.974-1.478,5.433-1.781c1.467-0.3,3.504-0.454,6.098-0.454c5.858,0,10.596,0.831,14.192,2.486
			c5.144,2.388,9.378,6.084,12.699,11.104c3.31,4.996,4.978,11.117,4.978,18.321c0,4.542-0.607,9.058-1.826,13.539
			c-1.223,4.479-2.591,8.058-4.106,10.72c-1.521,2.66-3.132,4.878-4.85,6.651c-1.279,1.338-3.413,3.109-6.434,5.32
			c-3.012,2.218-5.794,4.379-8.339,6.487c-2.545,2.106-4.37,3.517-5.475,4.241c-1.779,1.099-3.469,1.88-5.065,2.322
			c-2.22,0.661-4.79,0.994-7.716,0.994c-2.32,0-4.698-0.227-7.133-0.66C1065.125,241.322,1062.665,240.694,1060.177,239.861z
			 M1060.177,223.905c2.54,2.614,5.192,4.557,7.952,5.856c2.77,1.299,5.644,1.953,8.631,1.953c3.973,0,7.507-0.994,10.572-2.991
			c3.067-1.994,5.476-5.341,7.204-10.053c1.744-4.712,2.615-10.147,2.615-16.29c0-3.944-0.43-7.663-1.328-11.167
			c-0.877-3.529-2.091-6.375-3.639-8.57c-1.546-2.189-3.66-4.021-6.336-5.493c-2.688-1.459-5.607-2.195-8.752-2.195
			c-3.044,0-6.122,0.766-9.246,2.33c-3.121,1.551-5.676,3.511-7.668,5.896L1060.177,223.905L1060.177,223.905z"/>
		<path fill="#010101" d="M1178.089,233.954v6.489c-6.914-0.395-14.153-0.582-21.686-0.582s-16.009,0.187-25.418,0.582v-6.489
			c5.299-0.167,8.501-0.384,9.609-0.654c0.834-0.23,1.463-0.546,1.883-0.957c0.428-0.426,0.709-1.07,0.888-1.957
			c0.386-1.658,0.643-6.9,0.78-15.713c0.136-8.819,0.209-16.633,0.209-23.461v-27.456c0-8.694-0.197-16.66-0.579-23.857
			c-0.229-3.88-0.508-6.187-0.832-6.888c-0.218-0.396-0.526-0.701-0.916-0.921c-0.66-0.443-1.715-0.766-3.16-0.993
			c-0.831-0.111-3.318-0.256-7.472-0.426v-6.147c6.881-0.727,12.38-1.508,16.486-2.372c4.106-0.86,9.641-2.375,16.576-4.525
			l1.748,0.994l-0.711,16.809c-0.298,9.431-0.469,20.998-0.53,34.7v21.302c0,8.049,0.039,14.066,0.136,18.066
			c0.19,9.921,0.33,15.938,0.434,18.007c0.111,2.089,0.309,3.402,0.604,3.958c0.166,0.394,0.428,0.726,0.83,0.999
			c0.502,0.394,1.369,0.694,2.595,0.914C1170.064,233.489,1172.907,233.682,1178.089,233.954z"/>
		<path fill="#010101" d="M1264.262,234.208v6.235c-6.369-0.283-12.023-0.421-16.949-0.421c-4.664,0-9.18,0.132-13.547,0.421
			l-0.755-0.915l0.755-10.896c-1.998,1.277-7.878,5.655-17.617,13.135c-2.497,0.555-4.881,0.831-7.146,0.831
			c-6.044,0-10.774-1.779-14.17-5.326c-3.409-3.528-5.109-8.641-5.109-15.287c0-4.491,0.76-8.172,2.287-11.052
			c1.521-2.885,3.15-5.008,4.896-6.358c1.755-1.36,4.456-2.673,8.104-3.954c8.752-3.1,18.337-5.528,28.755-7.303
			c0.098-6.597-1.256-11.614-4.071-15.049c-2.884-3.437-7.258-5.147-13.14-5.147c-2.382,0-4.652,0.297-6.813,0.915
			c-0.936,0.273-2.053,0.828-3.324,1.658l-3.483,8.389l-5.651-1.249l0.49-10.722c4.107-2.772,8.017-5.171,11.731-7.227
			c3.702-2.05,6.312-3.296,7.8-3.74c2.05-0.606,4.936-0.917,8.652-0.917c6.025,0,10.998,0.881,14.914,2.626
			c3.905,1.742,6.787,3.807,8.642,6.194c1.846,2.382,3.13,4.931,3.817,7.645c0.692,2.714,1.04,6.148,1.04,10.303
			c0,1.774-0.139,6.394-0.416,13.867c-0.167,4.996-0.257,9.069-0.257,12.217c0,9.866,0.274,15.854,0.829,17.948
			c0.224,0.999,0.663,1.662,1.328,1.998C1256.756,233.489,1259.547,233.875,1264.262,234.208z M1233.766,200.304
			c-4.713,0.996-9.019,2.203-12.921,3.622c-3.919,1.415-6.607,3.149-8.105,5.229c-1.496,2.081-2.253,4.691-2.253,7.854
			c0,3.544,0.908,6.292,2.703,8.225c1.8,1.939,4.166,2.908,7.108,2.908c2.483,0,5.004-0.72,7.518-2.162
			c2.525-1.443,4.5-3.262,5.95-5.48V200.304z"/>
		<path fill="#010101" d="M1273.565,282.826c0.943-4.051,1.555-6.871,1.828-8.482l1.258-8.393l2.157-0.422
			c1.389,1.438,2.962,2.715,4.733,3.818c2.159,0.938,4.49,1.414,6.979,1.414c2.88,0,5.54-0.984,7.974-2.953
			c2.449-1.973,5.167-6.281,8.162-12.943l3.31-7.986l-26.929-69.1c-1.604-4.102-3.127-6.646-4.565-7.599
			c-1.44-0.976-4.177-1.438-8.223-1.382v-6.483c5.432,0.232,12.069,0.329,19.943,0.329c9.296,0,17.574-0.097,24.839-0.329v6.483
			h-1.91c-3.447-0.055-5.826,0.334-7.146,1.168c-0.834,0.554-1.258,1.27-1.258,2.157c0,0.999,0.273,2.218,0.83,3.66l4.076,11.224
			l12.134,31.616l7.353-17.22c7.117-17.076,10.677-26.943,10.677-29.605c0-0.557-0.147-0.999-0.417-1.335
			c-0.4-0.438-1.091-0.771-2.088-0.996c-1.988-0.388-4.655-0.601-7.975-0.663v-6.482c3.549,0.225,8.01,0.323,13.379,0.323
			c6.532,0,12.633-0.099,18.279-0.323v6.482h-1.33c-1.499-0.06-2.908,0.221-4.242,0.827c-0.825,0.334-1.566,0.895-2.193,1.67
			c-0.64,0.771-2.205,3.815-4.694,9.145c-3.274,6.986-5.897,12.75-7.89,17.294c-6.204,14.08-10.138,23.121-11.801,27.11
			l-13.379,32.673c-4.101,9.922-8.444,16.996-13.042,21.213c-4.604,4.268-10.19,6.398-16.779,6.398
			c-2.167,0-4.147-0.172-5.948-0.506C1277.88,284.311,1275.835,283.703,1273.565,282.826z"/>
	</g>
</g>
</svg>
