<?xml version="1.0" encoding="utf-8"?>
<!-- Generator: Adobe Illustrator 15.1.0, SVG Export Plug-In . SVG Version: 6.00 Build 0)  -->
<!DOCTYPE svg PUBLIC "-//W3C//DTD SVG 1.1//EN" "http://www.w3.org/Graphics/SVG/1.1/DTD/svg11.dtd">
<svg version="1.1" id="Layer_1" xmlns="http://www.w3.org/2000/svg" xmlns:xlink="http://www.w3.org/1999/xlink" x="0px" y="0px"
	 width="50px" height="50px" viewBox="0 0 50 50" enable-background="new 0 0 50 50" xml:space="preserve">
<path fill="none" stroke="#68B0AB" stroke-miterlimit="10" d="M15.489,20.688c0,0-2.346-2.75-3.096,1.625
	c-0.75,4.375,1.513,7.274,3.296,7.75c2.121,0.565,3.704-2.875,2.651-5.667C17.129,21.173,15.489,20.688,15.489,20.688z"/>
<path fill="none" stroke="#68B0AB" stroke-miterlimit="10" d="M17.519,16.688c0,0,0-5.625,3.5-5.625s3.736,5.625,3.736,5.625
	s-0.36,6.625-3.618,6.625C17.879,23.313,17.519,16.688,17.519,16.688z"/>
<path fill="none" stroke="#68B0AB" stroke-miterlimit="10" d="M26.895,17.188c0,0-0.125-6.125,2.25-6.125s3.062,4.5,3.062,5.625
	s-1.126,6.125-2.657,6.125C28.02,22.812,26.895,20.938,26.895,17.188z"/>
<path fill="none" stroke="#68B0AB" stroke-miterlimit="10" d="M36.52,19.834c0,0-2.125,0.979-3.25,2.354s-1.25,3.25-1.062,4.75
	c0.188,1.5,2.06,2.998,2.937,3.188s2.002-2.188,2.252-4.562C37.645,23.188,38.395,20.855,36.52,19.834z"/>
<path fill="none" stroke="#68B0AB" stroke-miterlimit="10" d="M25.182,25.812c0,0-4.163,0.5-7.663,8.375c-0.25,3,0.375,4.75,2.125,4
	s2.847-2.125,5.111-2.125c2.265,0,4.64,2.875,6.015,2.875s3.5-2.5,2.25-4.5S28.721,25.812,25.182,25.812z"/>
</svg>
