<?xml version="1.0" encoding="utf-8"?>
<!-- Generator: Adobe Illustrator 15.1.0, SVG Export Plug-In . SVG Version: 6.00 Build 0)  -->
<!DOCTYPE svg PUBLIC "-//W3C//DTD SVG 1.1//EN" "http://www.w3.org/Graphics/SVG/1.1/DTD/svg11.dtd">
<svg version="1.1" id="Layer_1" xmlns="http://www.w3.org/2000/svg" xmlns:xlink="http://www.w3.org/1999/xlink" x="0px" y="0px"
	 width="50px" height="50px" viewBox="0 0 50 50" enable-background="new 0 0 50 50" xml:space="preserve">
<g>
	<path fill="none" stroke="#68B0AB" stroke-linecap="round" stroke-linejoin="round" stroke-miterlimit="10" d="M28.018,17.221
		c0,0-4.312-0.97-6.79,0c0,0-5.604-3.88-6.466-3.449c-0.862,0.431-0.97,8.083,0,13.041c-0.107,2.479,0.861,10.992,9.807,10.992
		c8.947,0,10.238-11.209,10.238-11.209s0.323-9.915,0-11.531c-0.322-1.616-0.482-0.982-1.455-0.659
		C32.381,14.729,28.018,17.221,28.018,17.221z"/>
	
		<line fill="none" stroke="#68B0AB" stroke-linecap="round" stroke-linejoin="round" stroke-miterlimit="10" x1="19.504" y1="27.891" x2="10.128" y2="27.891"/>
	
		<line fill="none" stroke="#68B0AB" stroke-linecap="round" stroke-linejoin="round" stroke-miterlimit="10" x1="19.504" y1="31.445" x2="10.128" y2="33.816"/>
	
		<line fill="none" stroke="#68B0AB" stroke-linecap="round" stroke-linejoin="round" stroke-miterlimit="10" x1="30.173" y1="27.891" x2="39.871" y2="27.891"/>
	
		<line fill="none" stroke="#68B0AB" stroke-linecap="round" stroke-linejoin="round" stroke-miterlimit="10" x1="30.173" y1="31.445" x2="39.871" y2="34.248"/>
</g>
<g>
	
		<circle fill="none" stroke="#68B0AB" stroke-linecap="round" stroke-linejoin="round" stroke-miterlimit="10" cx="24.514" cy="24.052" r="14.512"/>
	<line fill="none" stroke="#68B0AB" stroke-miterlimit="10" x1="14.473" y1="13.58" x2="34.899" y2="34.184"/>
</g>
</svg>
