<?xml version="1.0" encoding="utf-8"?>
<!-- Generator: Adobe Illustrator 15.1.0, SVG Export Plug-In . SVG Version: 6.00 Build 0)  -->
<!DOCTYPE svg PUBLIC "-//W3C//DTD SVG 1.1//EN" "http://www.w3.org/Graphics/SVG/1.1/DTD/svg11.dtd">
<svg version="1.1" id="Layer_1" xmlns="http://www.w3.org/2000/svg" xmlns:xlink="http://www.w3.org/1999/xlink" x="0px" y="0px"
	 width="50px" height="50px" viewBox="0 0 50 50" enable-background="new 0 0 50 50" xml:space="preserve">
<g>
	<g>
		
			<circle fill="#FFFFFF" stroke="#68B0AB" stroke-linecap="round" stroke-linejoin="round" stroke-miterlimit="10" cx="25" cy="24.906" r="14.936"/>
		<path fill="#FFFFFF" stroke="#68B0AB" stroke-linecap="round" stroke-linejoin="round" stroke-miterlimit="10" d="M21.715,21.458
			l-4.85,5.065c0,0-0.808,2.315,1.617,4.74c2.425,2.426,5.496,1.616,5.496,1.616l4.311-4.851L21.715,21.458z"/>
		<path fill="#FFFFFF" stroke="#68B0AB" stroke-linecap="round" stroke-linejoin="round" stroke-miterlimit="10" d="M28.289,28.031
			c0,0,1.277,1.167,2.371,0c1.533-1.639-3.475-5.147-3.475-5.147l-3.854-3.797c0,0-2.264,0-1.94,1.186
			C21.715,21.459,28.289,28.031,28.289,28.031z"/>
		<path fill="#FFFFFF" stroke="#68B0AB" stroke-linecap="round" stroke-linejoin="round" stroke-miterlimit="10" d="M23.332,19.733
			c0,0,1.616-0.539,4.957-0.646c2.048-1.293,2.693-2.155,3.664-1.186c0.97,0.969-1.293,3.233-1.293,3.557s0.503,2.353,0,4.851
			C30.469,27.258,23.332,19.733,23.332,19.733z"/>
	</g>
	
		<line fill="none" stroke="#68B0AB" stroke-linecap="round" stroke-linejoin="round" stroke-miterlimit="10" x1="15.304" y1="14.776" x2="35.509" y2="35.037"/>
</g>
</svg>
